<mxfile host="app.diagrams.net" modified="2023-09-20T08:30:17.566Z" agent="Mozilla/5.0 (Windows NT 10.0; Win64; x64) AppleWebKit/537.36 (KHTML, like Gecko) Chrome/116.0.0.0 Safari/537.36" version="21.7.5" etag="Uj_0mI2goewlbloCv1ta" type="github">
  <diagram name="第 1 页" id="WtvTnUX_zZxXEXAwkA-r">
    <mxGraphModel>
      <root>
        <mxCell id="0" />
        <mxCell id="1" parent="0" />
      </root>
    </mxGraphModel>
  </diagram>
</mxfile>
